<svg version="1.0" id="Layer_1" xmlns="http://www.w3.org/2000/svg" xmlns:xlink="http://www.w3.org/1999/xlink"
     viewBox="0 0 768 768">
  <style>
    @keyframes rotate {
    0% {
    transform: rotate(0turn)
    }
    99.99% {
    transform: rotate(.99999turn)
    }
    }

    .st0 {
    fill: #000
    }
  </style>
  <defs>
    <g id="trunk" style="animation:rotate 40s linear infinite;transform-origin:center" fill="#ff7c1a">
      <path
        d="M404 108c23-1 46 2 67 12 12 6 22 16 34 22 12 7 25 10 39 13l18 6c5 2 9 2 7 7-1 3-6 7-8 10-4 5-5 10-12 7-13-6-25-15-38-22l-30-16c-22-10-45-21-69-24-25-3-50 1-74 8a620 620 0 0 0-88 30c-5 3-9 6-13 2-3-2-8-9-6-12 2-4 10-8 13-10 12-8 25-11 39-15 12-3 24-4 36-8 15-5 28-8 44-8l20-1c4 0 17 1 21-1z"/>
      <path
        d="M374 128c22 0 44 1 66 9a703 703 0 0 1 80 38c5 2 29 13 29 18 0 3-5 6-8 6s-8-5-11-7l-25-14c-37-19-82-35-124-33-23 0-45 5-67 13l-31 11-16 6c-3 2-11 7-14 7-2 0-11-9-10-12s13-6 16-8a659 659 0 0 1 78-26l21-6c4-1 12 1 16-2z"/>
      <path
        d="M374 152a271 271 0 0 1 140 40l13 8c2 1 9 4 9 6 2 2-1 6-3 8-5 3-6 1-11-2l-24-15c-34-18-79-35-118-30-21 2-41 7-62 13-10 3-20 5-29 9-6 2-22 11-27 7-12-8 5-12 12-15l35-13c13-5 25-9 38-11l14-4c4 0 10 1 13-1zM219 161c4 1 9 8 8 11-2 3-13 7-16 9-12 7-21 17-30 27-17 20-29 45-38 69a369 369 0 0 0-11 183l7 21c2 3 8 12 6 15 0 2-6 5-7 5-4 1-4 0-6-3-4-4-7-10-10-15-7-13-10-28-12-43-4-24 3-48 1-73 0-11-3-23-2-34 2-14 6-27 11-40l17-38c6-15 8-30 12-45 5-16 17-26 32-32l20-8 18-9z"/>
      <path
        d="M389 170c35-1 71 16 101 32l21 12c6 4 19 9 8 17-3 3-4 2-8 0a296 296 0 0 0-34-19c-34-16-77-31-116-26-19 3-37 11-55 18-8 4-16 10-24 12-7 2-6 0-10-5-3-4-6-6-3-10 6-5 19-7 26-9l34-11 36-8 13-2 11-1zM231 175c2 0 8 6 9 9 1 4 2 1-1 4-1 2-7 4-9 5-12 7-25 13-34 24-16 18-26 39-34 60a325 325 0 0 0-18 140l5 30 5 19 3 10 5 9c0 3-5 9-9 8-3-1-6-12-7-14a192 192 0 0 1-15-93l3-33c1-12 1-25 3-37 10-52 40-121 94-141z"/>
      <path
        d="M379 191c35-1 68 12 98 30l19 11c5 4 14 7 12 13-3 12-12 3-19-1a279 279 0 0 0-115-35c-15 0-30 5-44 11l-24 11-12 6c-4 0-6-5-9-9s-5-5 0-8c4-3 10-4 15-6l26-12a228 228 0 0 1 45-10l8-1zM596 191c3 0 8 12 9 14l12 17 22 31c14 22 19 48 20 75 0 10 2 27-14 27-5 0-4-8-5-13l-3-20c-6-28-13-55-28-79-6-10-14-19-22-27-5-5-9-6-6-12 4-5 10-9 15-13zM247 193c2 0 4 3 5 5 3 4 3 4-2 6-8 5-17 9-24 15-12 12-21 26-29 40-17 31-27 66-30 100-3 33-4 66 8 97a251 251 0 0 0 87 111l22 14c3 1 6 1 6 5l-6 9c-5 2-13-7-17-9l-24-16c-12-10-25-20-36-31-12-12-22-25-30-39-2-3-6-7-6-10-1-7 5-4 7-9s-7 4-9 3c-3-1-6-15-7-18l-7-29a285 285 0 0 1 12-160c9-18 20-35 33-51 6-8 14-15 22-20 8-4 18-7 25-13z"/>
      <path
        d="M258 206c3 0 11 9 12 12 2 4-1 5-5 7l-11 6c-12 7-26 15-35 26-19 24-27 57-32 87-3 25-1 51 2 76 2 15 5 32 10 46 6 16 19 31 31 43a434 434 0 0 0 59 47c2 1 12 5 13 8 1 2-1 5-3 7-2 4-3 5-7 4-7-2-13-8-19-12-13-9-25-20-38-31a184 184 0 0 1-63-161c3-32 8-63 21-93 6-15 15-30 25-43 7-8 12-14 21-19 6-3 14-6 19-10zM574 211c4 0 10 8 13 11l13 16c10 14 18 30 23 47 5 15 8 31 10 47 1 7 3 15 2 21 0 4 1 4-2 6-2 1-7 3-9 2-2-2-1-17-2-21l-2-21c-2-14-5-28-11-42a171 171 0 0 0-37-54c-4-4-6-3-3-7 0-2 4-4 5-5zM386 220c29 0 59 7 84 21 6 3 16 6 20 11 3 3 2 2 0 6l-6 9c-3 4-3 3-7 2l-9-6-20-10c-25-12-53-22-82-16-15 3-31 7-45 14l-8 3c-4 2-5 3-9 0-2-2-9-10-8-13 2-3 18-7 21-8 9-3 18-6 26-7 8-2 39-4 43-6z"/>
      <path
        d="M560 224c6 0 15 12 19 16l11 12c10 14 18 30 22 47l6 37 1 21c0 7-4 9-11 10s-5-2-5-9v-19c-1-18-3-35-10-52-6-15-15-28-26-40l-12-10c-5-6 0-8 5-13zM274 225c3 0 13 11 13 14l-10 6-22 15c-11 8-18 17-24 29-13 23-20 48-21 74-1 23 0 46 5 68 2 14 6 29 15 41a214 214 0 0 0 53 55l15 10c4 3 16 7 15 12l-5 9c-3 2-2 1-5 1l-15-9c-11-6-21-14-30-21-20-16-43-38-53-62-10-25-13-53-14-80-1-33 2-67 18-96 15-28 36-53 65-66z"/>
      <path
        d="M544 240c6 0 16 14 20 19a144 144 0 0 1 34 109c0 21-3 42-5 62-2 27-7 54-19 78a114 114 0 0 1-35 44c-5 3-13 11-19 12-4 1-7-3-10-7-4-6-2-7 4-11 10-7 20-15 29-24 42-36 43-93 39-144-2-25-3-51-11-75-4-15-11-30-22-42-3-3-10-7-12-12-2-4 3-6 7-9zM385 242c28 0 57 14 81 29 1 1 9 4 10 6 0 3-5 8-6 10-5 7-7 4-14 0a171 171 0 0 0-75-24c-13-1-26 4-38 8-25 10-55 23-67 48-12 24-14 51-12 77 2 14 3 29 9 43 6 12 18 24 28 34 10 11 21 21 35 26 12 6 28 7 41 6 13 0 26 0 39-2 7-1 14-2 20-5 4-1 17-10 20-9s8 16 8 20c-1 4-1 4-5 6l-11 4c-16 5-32 8-48 9-14 0-29 0-44-2-3 0-15-1-18-4-1-2 5-17 4-17 0 2-6 11-8 12-4 4-8 0-13-3a153 153 0 0 1-76-95c-14-57-1-129 59-153 12-6 26-10 39-15l23-7c4 0 15 1 19-2z"/>
      <path
        d="M291 244c3 0 9 8 10 10 4 6 1 5-5 8a120 120 0 0 0-67 95c-1 23 3 48 10 71 6 22 21 41 36 59 7 8 15 16 25 23l10 7c4 3 11 4 15 7 3 3 2 2 1 6l-5 7c-4 3-8 0-12-3-12-7-23-14-33-22-20-16-39-34-50-57-10-20-11-44-11-66-1-28 0-57 12-83 6-14 16-27 28-37 5-6 11-10 18-14 5-4 13-6 18-11zM527 255c8 3 17 15 23 22 7 9 12 19 15 30 6 20 8 41 9 62 3 43 7 94-20 131-7 10-16 18-25 25l-12 10c-3 2-12 12-15 11-2 0-8-8-9-10-1-4 1-4 5-6 10-8 21-16 30-25 32-32 33-80 31-123-1-22-3-44-8-65-3-12-8-24-16-35l-14-14c-1-2-3-3-3-5s7-7 9-8z"/>
      <path
        d="M512 269c7-1 17 16 20 21 7 8 11 19 14 29 4 17 6 35 7 53 2 37 7 81-17 113-7 10-15 17-24 25-6 4-15 14-22 16-5 2-5 0-8-4-2-2-6-6-5-9 0-6 13-12 18-16 35-27 42-68 42-110 0-26-2-52-15-75-6-10-16-17-23-27-3-4-1-4 3-8l10-8zM380 272c19 0 38 3 56 11 7 3 16 7 22 12 6 6-1 9-7 12-8 4-10 0-18-4-6-4-13-8-20-10-15-6-26-6-41-4s-30 6-44 12c-13 7-22 18-28 31-15 28-18 68-3 96a107 107 0 0 0 128 48c5-2 17-10 21-7l6 8c3 5 3 5-3 9-15 9-33 12-50 13-19 2-38 1-56-7-16-8-32-19-46-32a81 81 0 0 1-25-44c-6-33-6-70 11-100 10-17 28-23 45-30 9-4 18-8 28-10l12-3c3 0 10 1 12-1z"/>
      <path
        d="M490 288c5 1 13 10 15 14 7 7 12 17 16 26 5 15 8 30 8 45-2 35 0 68-19 98l-16 20c-2 2-15 16-19 14-3-1-8-18-8-21 0-4-1-2 3-6l8-7c29-23 30-59 27-93-1-16-2-33-8-48-3-10-8-17-15-24-4-4-5-5-1-9l9-9zM386 293c12-1 25 4 35 9 4 2 12 5 14 9 3 3 2 1 0 4l-5 6c-5 6-7 3-13 0l-22-6c-13-1-26-2-38 4-9 6-19 12-27 19a47 47 0 0 0-16 35c-1 14 2 28 7 42 5 12 13 19 24 26 20 13 42 16 64 9 5-1 11-6 16-6 4 0 10 8 12 12 1 4 2 3-1 5-1 2-6 4-9 5-5 3-11 6-18 8-21 5-52 2-70-11-19-13-42-36-45-60-4-25 2-55 15-77 8-13 17-18 31-23a177 177 0 0 1 36-9l10-1z"/>
      <path
        d="M471 307c4 0 10 9 12 12 5 6 8 13 10 20 4 13 6 26 7 40 2 24 3 54-12 75-4 6-10 10-15 14l-7 6c-4 3-4 3-7-1-2-1-7-6-7-8-1-3 0-3 3-6 5-4 9-9 12-14 12-21 15-49 15-73 0-14-3-27-12-38-2-3-16-15-15-17l8-4 8-6z"/>
      <path
        d="M448 321c5 0 11 8 14 12 5 5 9 11 12 18 4 12 3 24 2 37-2 14-3 29-8 42-3 7-7 14-12 19-2 1-7 7-10 7-3 1-4-2-6-4-3-4-9-9-7-13 1-4 10-10 13-14 10-12 15-24 14-41 0-13-4-28-12-39-2-3-14-14-14-16 0-4 11-6 14-8zM381 322c9-1 17 0 25 3 7 2 18 4 12 12-3 5-7 14-13 14-3 0-9-4-13-5h-14c-36 5-45 56-12 72 7 3 14 6 22 5 6-1 16-8 20-6 2 2 14 16 13 18-1 5-19 8-22 9-18 3-37 0-52-9s-23-23-27-40c-5-19 0-38 13-52 7-7 14-12 23-16l14-4 11-1z"/>
      <path
        d="M427 337c8 0 18 20 20 26 4 11 6 22 4 33-2 10-7 19-14 27-5 6-10 13-16 6l-8-9c-3-4-4-4-2-8 3-4 7-7 9-12 2-4 4-8 4-13 2-12-4-19-10-28-3-5-1-6 3-11l10-11z"/>
      <path
        d="M379 352c4 0 23 0 24 6 1 3-7 11-8 13-2 2-7 7-7 10 3 1 13-14 15-17 4-3 4-5 8 0 3 3 4 8 5 12 4 18-6 35-25 39-18 5-35-8-38-26-2-9-2-18 5-24l10-8 11-5zM655 364c3 0 2 17 3 21l2 34c1 19 3 40-3 59-7 23-20 42-31 63-9 17-17 37-31 51-7 6-15 11-22 15l-15 9c-7 3-7 3-12-3-2-3-5-6-4-9 1-2 9-6 11-7a291 291 0 0 0 62-63c11-17 16-39 20-58a422 422 0 0 0 8-94c0-4-2-13 0-16s9 0 12-2z"/>
      <path
        d="M634 367c6 1 2 44 1 51-1 18-4 34-7 52s-8 36-16 52-21 30-33 43l-16 16-12 9c-2 2-10 10-13 10-2 0-6-5-7-7-1-4 0-4 5-7l23-16c30-25 48-57 57-95 4-20 6-40 7-61l1-26v-16c2-8 5-2 10-5z"/>
      <path
        d="M616 369c7-1 2 51 1 58-2 22-6 44-13 65a156 156 0 0 1-60 82c-3 2-9 8-13 7-2 0-8-8-8-10 4 0 14-9 17-12 9-7 17-15 24-24 14-19 22-40 27-62 4-19 7-39 8-58l2-30c1-3 0-12 2-14 3-3 10 0 13-2zM164 491c4 1 11 14 14 18a286 286 0 0 0 51 55c12 10 24 19 37 27 3 2 9 4 11 7 3 4 2 2 0 7-4 8-9 3-15-1a329 329 0 0 1-104-102c-4-7 0-6 6-11z"/>
      <path
        d="M147 502c5 0 14 20 18 24 7 11 16 20 25 30 17 18 37 34 58 48l17 10c2 2 3 1 4 4l-5 7c-3 1-11-6-14-7-6-3-11-4-17-5-27-5-46-24-60-46l-21-34-10-18c-1-2-4-5-3-7 0-3 6-5 8-6zM465 517c1 0 9 13 9 15 2 6-9 8-13 10-14 5-29 9-43 10-28 1-55 4-82-5-5-1-7-2-6-7l3-10c3-2 4-1 8-1a302 302 0 0 0 101-2c7-2 17-5 23-10z"/>
      <path
        d="M478 542c3 0 10 11 9 14-1 4-16 8-20 10-13 5-27 8-42 9-27 3-58 6-85-1-6-1-20-4-19-10 0-1 2-9 4-10 2-3 3-1 6 0 13 3 26 5 40 5l57-3c15-2 37-5 50-14z"/>
      <path
        d="M490 562c2 0 9 10 8 12 0 4-10 6-13 8-13 5-26 8-39 11a249 249 0 0 1-111-3c-6-1-18-3-22-6-3-3-1-4 1-7 0-1 2-5 4-5 3-1 13 4 16 5 7 2 15 4 22 4 15 2 29 1 44 1 14 0 29-2 43-5 15-2 35-6 47-15z"/>
      <path
        d="M501 581c3 0 6 7 7 9 1 4 2 4 0 6l-10 5-13 5a342 342 0 0 1-131 13c-16-2-30-5-45-10l-7-3c-4-3-5-2-3-7 4-10 8-8 17-5a264 264 0 0 0 163-4c6-3 17-5 22-9z"/>
      <path
        d="M512 600c4 0 8 10 6 13-1 2-8 4-11 5-5 2-9 5-14 6a318 318 0 0 1-136 14c-17-2-33-6-49-12-4-1-18-4-19-8-1-2 1-5 3-7 3-3 4-3 9-1 32 13 66 14 100 14 19 0 36-2 54-5l30-8c8-3 20-6 27-11z"/>
      <path
        d="M522 616c3 1 5 7 6 9 3 4 3 3 0 7-5 5-16 8-22 12-7 4-14 10-22 13-9 3-18 3-27 2l-54-3h-63c-19 0-39-2-54-11-6-4-11-7-8-14 2-3 4-6 7-7 4 0 12 5 15 7 37 13 74 16 112 13a369 369 0 0 0 83-16c9-3 20-6 27-12z"/>
    </g>
    <g id="schrift">
      <g id="festival">
        <path class="st0"
              d="M221 477l1-1 38-5 1 1v19l-1 1-18 3-1 1v6l1 1 8-1 1 1v20l-2 1-8 1-1 1v26l-2 2-19 2-1-2 3-77zM268 468l2-2 36-5 1 1v19l-1 2-18 2v8a230 230 0 0 0 9-1 50245 50245 0 0 0-1 21l-9 1v8a544 544 0 0 0 19-2v20l-2 2a1059 1059 0 0 1-38 3l2-77zM341 477l-1-1c0-2-1-3-3-3l-2 2c0 4 5 7 11 10 7 4 12 11 11 19 0 14-9 27-22 29-16 3-23-8-22-25l1-2 14-3 1 2c1 4 2 8 5 8l2-4c0-3-5-6-12-11s-10-12-10-20c0-11 9-24 23-26s22 8 22 20l-2 2-16 3zM378 521l-2-1 2-56-1-1a2578 2578 0 0 0-12 0l1-19 1-1 44-6 2 1-1 19-2 1-10 2-1 1-2 56-2 2-17 2zM418 512l-1-1 2-78 1-1 18-3 1 1-2 78-2 2-17 2zM470 455v1l1-1a4731 4731 0 0 0 7-36l17-2 1 1-17 80-1 1-20 4-2-1a19778 19778 0 0 1-10-77 1214 1214 0 0 0 20-3l4 33zM530 408l2 2 11 74c0 2-1 3-2 3l-17 2-1-1-1-16-1-1-6 1-1 1a5559 5559 0 0 1-4 17l-17 2c-1 1-1 0-1-1a18305 18305 0 0 1 18-80l20-3zm-10 42l-1-3-1 3-1 10v1l4-1-1-10zM590 454l1 1-1 20-1 1-39 5c-1 1-1 0-1-1l3-77 1-2 18-2 1 1-2 56 1 1 19-3z"/>
      </g>
      <g id="generationen">
        <path class="st0"
              d="M128 391h-1c-21 3-39 14-55 24 14-43 59-61 59-65 0-8-8-12-19-10-16 2-58 47-58 86v2c-10 7-17 11-23 11-18 1-7 21 1 20 7 0 15-6 25-15 4 15 13 24 19 25h5c7-2 15-8 22-13l-1 15c0 25 13 49 25 47s-5-4-5-42c0-45 17-74 17-77 0-6-4-8-11-8zm-22 48c-5 10-20 22-27 24-4-4-11-11-11-23l1-8c15-14 32-30 52-34-5 8-9 28-15 41zm139-72h-4-2l-1 1-1 1c-10 7-21 44-26 61l-1-9 1-21c0-8-19-3-19 0s1 1 1 3l1 19c-3 8-9 17-18 19-7 1-15-11-14-24h9c9-1 15-10 15-23 0-8-3-13-7-14s-16 0-21 6c-6 5-14 22-14 39 0 13 10 28 28 25 11-2 18-13 23-22 2 10 6 19 15 17h2l1-2c5-8 15-48 21-64-2 11-5 29-5 43 0 22 20 20 20 16s-3-2-3-21c0-10 7-39 7-45 0-4-4-5-8-5zm-70 23c6-1 4 28-13 24 1-11 6-22 13-24zm168-52c-6 2-17 34-20 52v-13l2-22c0-5-4-9-12-7-5 1-6 21-6 34v14c-3 8-9 16-17 18-7 2-15-9-14-22l9-1c9-2 15-11 15-25 0-7-3-12-7-13s-16 2-21 8c-6 6-14 23-14 40 0 13 11 27 29 22 10-3 17-12 21-22 5 27 20 18 20 15 0-2-3-4-3-13-1-16 16-52 16-52l-2 14c0 3 4 4 11 3 6-2 9-13 9-24s-8-8-15-6h-1zm-55 26c7-1 4 28-12 25 1-11 5-23 12-25zm229-66c-7 2-14 9-18 14a61 61 0 0 0-11 36c-4 8-8 16-11 19-2-5-5-13-5-27l1-18c0-6-16-7-16-2l-1 24c0 12 2 36 19 32 5-1 10-11 14-21 2 9 7 17 18 15 17-4 23-28 23-48 0-19-6-25-13-24zm-4 64c-8 1-4-20-4-36 4-5 3-19 7-20 14-3 5 54-3 56zm77-80h-6l-2 1-1 1c-9 7-20 43-25 60l-1-9 1-21c0-8-19-3-19-1l1 4c0 2-2 46 17 42h2l1-2c5-8 15-48 21-63-2 10-5 28-5 42 0 22 20 22 20 18s-3-2-3-22c0-9 7-38 7-44 0-3-4-5-8-6zm122-3c0-3-4-6-9-7l-3-1h-3l-1 1h-1c-9 6-21 40-26 57v-9-21c0-8-19-5-19-3l2 3v20c-3 7-9 15-18 16-7 1-15-11-14-24l10 1c8-1 15-9 15-23 0-7-3-13-7-14-4-2-17-1-22 4-5 6-14 23-14 39 0 13 11 28 29 26 11-1 18-11 22-20 2 11 7 21 16 20h2l1-1c5-8 15-46 21-61-2 10-5 28-5 42 0 22 20 24 20 21s-3-3-3-23c0-9 7-37 7-43zm-79 6c6-1 4 28-13 23 2-11 6-22 13-23zm-152 4c0-5-7-11-14-10-6 2-12 3-12 10 0 6 26 12 26 0z"/>
        <path class="st0"
              d="M454 380c-2 0-1 3-3 6 0 2-2 4-3 4-6 1-6-21-6-25l2-32 3-17 16-6c5-2 13-5 17-9 3-3 0-3-3-3l-10 3-18 4 2-16 1-10 1-6-3-6c-2-2-3-3-5-3l-6 1c-3 3-3 11-3 15l-3 14-2 15-15 5-10 3-1 1 1 2 3 2 3 2 3 1h5l3-2 6-1-2 13c-1 10-3 22-2 33l-8 21c-5 1-4-24-4-33v-2c0-3-4-6-11-3-8 2-8 6-8 9 0 7-8 36-12 37s-5-6-5-11c0-24 12-50 24-54 5-1 6 9 6 12s5 0 5-2c0-18-10-16-23-12-19 5-29 35-29 52 0 18 9 23 19 20s15-24 16-24 4 24 16 21l2-1c5-3 9-12 14-23v1c2 7 6 24 16 23 4-1 8-7 10-10 1-2 5-10 1-9z"/>
      </g>
    </g>
  </defs>
  <g id="logo">
    <use xlink:href="#trunk"/>
    <use xlink:href="#schrift"/>
  </g>
</svg>
