<?xml version="1.0" encoding="utf-8"?>
<!-- Generator: Adobe Illustrator 21.1.0, SVG Export Plug-In . SVG Version: 6.00 Build 0)  -->
<svg version="1.1" id="Ebene_1" xmlns="http://www.w3.org/2000/svg" xmlns:xlink="http://www.w3.org/1999/xlink" x="0px" y="0px"
	 viewBox="0 0 1190.5 841.9" style="enable-background:new 0 0 1190.5 841.9;" xml:space="preserve">
<style type="text/css">
	.st0{fill:#E95123;}
	.st1{fill-rule:evenodd;clip-rule:evenodd;}
	.st2{fill:#31AA47;}
	.st3{fill:#FFFFFF;}
</style>
<g>
	<path class="st0" d="M568.1,273.3c2.4-4.6,7.2-7.8,12.7-7.8c7.9,0,14.2,6.4,14.2,14.3c0-7.9,6.4-14.3,14.3-14.3
		c7.9,0,14.2,6.4,14.2,14.3l0,0.5c0,0,0-0.1,0-0.1l0-0.3c0-7.9,6.4-14.3,14.3-14.3c5.5,0,10.3,3.2,12.7,7.8l0.2,0.6
		c0.6-1.3,1.1-2.7,1.6-4.1c1-3,1.6-6.1,1.9-9.2c0.1-1.1,0.1-2.3,0.2-3.4V196h-89.5l-0.1,61.3c0,1.1,0.1,2.3,0.2,3.4
		c0.2,3.1,0.9,6.2,1.9,9.2L568.1,273.3z"/>
</g>
<g>
	<g>
		<path d="M301.3,527.2c6.1,3.3,13.1,4,19.9,4c12.9,0,25.3-7.1,25.3-22.6c0-23.2-31.4-18.9-31.4-33.7c0-6,6-8.8,12.8-8.8
			c3.1,0,11.1,1.8,14.1,3.7l1.1-11.7c-5.3-1.6-10.4-2.8-16.6-2.8c-14.4,0-25.6,7.2-25.6,22.3c0,20.3,31.4,19.2,31.4,32.4
			c0,7.8-7.5,10.4-13.6,10.4c-3.8,0-11.4-1.7-16.6-5.1L301.3,527.2L301.3,527.2z"/>
		<path d="M394.8,457h-19.2v-21l-13.4,4.3V457h-16.3v10.8h16.3v42.3c0,14.5,8.5,21,22.3,21c4.3,0,8.4-1.1,11.4-2v-11.4
			c-2,1.3-5,2.6-9.1,2.6c-6.1,0-11.2-4.5-11.2-12.9v-39.6h19.2V457L394.8,457z"/>
		<path class="st1" d="M455.1,513.1c-3.3,2.7-13.5,7.2-22.3,7.2c-12.6,0-23.9-9.8-23.9-24.2h51.7c0-23.3-7.8-40.9-32-40.9
			c-20.5,0-34,15.2-34,36.7c0,23.6,11.8,39.2,37.5,39.2c11.9,0,17.8-2.8,22.9-4.7V513.1L455.1,513.1z M408.9,486.3
			c1-9.4,6.4-20.2,19.5-20.2c11.5,0,18,9.1,18,20.2H408.9L408.9,486.3z"/>
		<path d="M479.4,529.5h13.4v-61.7h19.2V457h-19.2v-7.8c0-9.8,1.4-17.2,12.9-17.2c2.3,0,4.8,0.3,6.4,0.9l0.6-10.8
			c-2.7-0.4-5.5-0.9-9-0.9c-19.8,0-24.3,11.5-24.3,29.1v6.7h-17.1v10.8h17.1V529.5L479.4,529.5z"/>
		<path d="M525.5,529.5h13.4v-61.7H558V457h-19.2v-7.8c0-9.8,1.4-17.2,12.9-17.2c2.3,0,4.8,0.3,6.4,0.9l0.6-10.8
			c-2.7-0.4-5.5-0.9-9-0.9c-19.8,0-24.3,11.5-24.3,29.1v6.7h-17.1v10.8h17.1V529.5L525.5,529.5z"/>
		<polygon points="563.1,529.5 576.5,529.5 576.5,457 563.1,457 563.1,529.5 		"/>
		<path d="M588.5,527.2c6.1,3.3,13.1,4,19.9,4c12.9,0,25.3-7.1,25.3-22.6c0-23.2-31.4-18.9-31.4-33.7c0-6,6-8.8,12.8-8.8
			c3.1,0,11.1,1.8,14.1,3.7l1.1-11.7c-5.3-1.6-10.4-2.8-16.6-2.8c-14.4,0-25.6,7.2-25.6,22.3c0,20.3,31.4,19.2,31.4,32.4
			c0,7.8-7.5,10.4-13.6,10.4c-3.8,0-11.4-1.7-16.6-5.1L588.5,527.2L588.5,527.2z"/>
		<path class="st1" d="M644.9,529.5h12.8v-10.2h0.3c3.6,5.4,11.8,11.9,24.7,11.9c21.9,0,31.1-19.3,31.1-39.2
			c0-19.5-10.2-36.7-31.3-36.7c-12.6,0-19.9,5-24,11.7h-0.3v-44.1h-13.4V529.5L644.9,529.5z M699.6,492.9c0.3,11.4-5.7,27.4-20,27.4
			c-15.1,0-21.3-14.9-21.3-27c0-13.5,7-27.3,21.5-27.3C694.2,466.1,699.9,479.9,699.6,492.9L699.6,492.9z"/>
		<path d="M786.6,457h-13.4v33.5c0,17.6-6.8,29.8-22,29.8c-11.7-0.7-15.3-9-15.3-25.9V457h-13.4V500c0,19.5,8.4,31.1,27.1,31.1
			c10.1,0,19.8-5,23.7-13.2h0.3v11.5h12.9V457L786.6,457z"/>
		<path d="M800.1,529.5h13.4v-33c0-18.2,7.8-29.6,19.8-29.6c2.3,0,5,0.3,7.4,1.3v-11.9c-2.8-0.6-4.8-1-8.8-1
			c-7.7,0-15.3,5.4-18.9,12.9h-0.3V457h-12.5V529.5L800.1,529.5z"/>
		<path class="st1" d="M907.4,457h-12.4v10.8h-0.3c-4-7.8-11.1-12.5-23.9-12.5c-21.9,0-32.4,19.9-32.4,38.5
			c0,18.8,10.2,35.7,31,35.7c9.2,0,18.6-3.7,24.3-11.2h0.3v7.1c0,15.3-8.4,24.9-22.4,24.9c-9.8,0-15.9-1.8-26.2-6.5L844,556
			c11.7,4,18.3,5,26,5c26,0,37.4-12.6,37.4-34.7V457L907.4,457z M872.9,518.7c-12.5,0-20.2-11.9-20.2-25.6c0-12.4,6.7-27,20.2-27
			c14.2,0,21.2,12.9,21.2,28C894.1,507.6,885.4,518.7,872.9,518.7L872.9,518.7z"/>
		<polygon points="575.2,421.7 588.3,421.7 576.8,450.6 563.6,450.6 575.2,421.7 		"/>
		<path class="st1" d="M368.6,317.6h-12.4v10.8H356c-4-7.8-11.1-12.5-23.9-12.5c-21.9,0-32.4,19.9-32.4,38.5
			c0,18.8,10.2,35.7,31,35.7c9.2,0,18.6-3.7,24.3-11.2h0.3v7.1c0,15.3-8.4,24.9-22.5,24.9c-9.8,0-15.9-1.8-26.1-6.5l-1.4,12.4
			c11.7,4,18.3,5,26,5c26,0,37.4-12.6,37.4-34.7V317.6L368.6,317.6z M334.1,379.3c-12.5,0-20.2-11.9-20.2-25.6
			c0-12.4,6.7-27,20.2-27c14.2,0,21.2,12.9,21.2,28C355.3,368.2,346.6,379.3,334.1,379.3L334.1,379.3z"/>
		<path class="st1" d="M439.8,373.8c-3.3,2.7-13.5,7.2-22.3,7.2c-12.6,0-23.9-9.8-23.9-24.2h51.7c0-23.3-7.8-40.9-32-40.9
			c-20.5,0-34,15.2-34,36.7c0,23.6,11.8,39.2,37.5,39.2c11.9,0,17.8-2.8,22.9-4.7V373.8L439.8,373.8z M393.6,346.9
			c1-9.4,6.4-20.2,19.5-20.2c11.5,0,18,9.1,18,20.2H393.6L393.6,346.9z"/>
		<path d="M458.8,390.1h13.4v-36.5c0-13.5,5.4-26.9,19-26.9c10.8,0,12.9,11.2,12.9,20.2v43.2h13.4v-36.5c0-13.5,5.4-26.9,19-26.9
			c10.8,0,12.9,11.2,12.9,20.2v43.2h13.4v-46.5c0-15.8-6.7-27.7-25.2-27.7c-6.5,0-17.5,3.7-22.5,14.1c-3.8-9.8-12.2-14.1-20.6-14.1
			c-10.7,0-17.9,3.8-23,12.2h-0.3v-10.5h-12.5V390.1L458.8,390.1z"/>
		<path class="st1" d="M636.6,373.8c-3.3,2.7-13.5,7.2-22.3,7.2c-12.6,0-23.9-9.8-23.9-24.2h51.7c0-23.3-7.8-40.9-32-40.9
			c-20.5,0-34,15.2-34,36.7c0,23.6,11.8,39.2,37.5,39.2c11.9,0,17.8-2.8,22.9-4.7V373.8L636.6,373.8z M590.4,346.9
			c1-9.4,6.4-20.2,19.5-20.2c11.5,0,18,9.1,18,20.2H590.4L590.4,346.9z"/>
		<polygon points="654.6,390.1 668,390.1 668,317.6 654.6,317.6 654.6,390.1 		"/>
		<path d="M688.1,390.1h13.4v-33.5c0-17.6,6.8-29.8,22-29.8c11.7,0.7,15.3,9,15.3,25.9v37.5h13.4V347c0-19.5-8.4-31.1-27.1-31.1
			c-10.1,0-19.8,5-23.7,13.2h-0.3v-11.5h-12.9V390.1L688.1,390.1z"/>
		<path class="st1" d="M819.1,390.1h12.8V283.5h-13.4v44.1h-0.3c-4.1-6.7-11.4-11.7-24-11.7c-21,0-31.3,17.2-31.3,36.7
			c0,19.8,9.2,39.2,31.1,39.2c12.9,0,21.2-6.5,24.7-11.9h0.3V390.1L819.1,390.1z M777.2,353.6c-0.3-13.2,5.4-26.9,19.9-26.9
			c14.5,0,21.5,13.8,21.5,27.3c0,12.1-6.3,27-21.3,27C782.9,381,776.9,364.9,777.2,353.6L777.2,353.6z"/>
		<path class="st1" d="M903.1,373.8c-3.3,2.7-13.5,7.2-22.3,7.2c-12.6,0-23.9-9.8-23.9-24.2h51.7c0-23.3-7.8-40.9-32-40.9
			c-20.5,0-34,15.2-34,36.7c0,23.6,11.8,39.2,37.5,39.2c11.9,0,17.8-2.8,22.9-4.7V373.8L903.1,373.8z M856.9,346.9
			c1-9.4,6.4-20.2,19.5-20.2c11.5,0,18,9.1,18,20.2H856.9L856.9,346.9z"/>
		<polygon points="667,281.1 679,281.5 667.4,310.3 655.5,310 667,281.1 		"/>
		<path class="st0" d="M415.4,671.2l0.2-78.6c24.5-22.4,68.8-45.8,96.1-47.1c22.1-1,32.9,22.6,29,42.9
			c26.1-21.3,56.5-43.6,90.6-43.2c13.6,0.1,24.4,3.8,29,20.7c-4.6,1.1-7.2,2.3-11.2,4.8c-4.9,3.1-5.8,7.4-10.8,10.3
			c-5.2,3-9.5,1.4-14.8,4.1c-6.5,3.3-7.7,8.8-14,12.4c-4.4,2.5-7.8,2-12.1,4.6c-5.2,3.2-5.9,8-11.3,10.8c-4.5,2.4-8.1,1-12.7,3.3
			c-5.1,2.6-6.2,6.8-11.1,9.8c-5.3,3.2-9.7,2.3-14.9,5.7c-4.8,3-7.2,5.2-10.6,9.7c-4.3-16.7-15-19.3-28.9-19.2
			C479.2,622.6,436.5,653.7,415.4,671.2L415.4,671.2z"/>
		<path class="st2" d="M537.9,672.4l0.4-9.2l0.1-9c3.8-4.2,6.4-6.3,11.3-9c4.3-2.4,7.5-2.2,11.8-4.6c6-3.3,7.3-8.2,13.4-11.3
			c5.3-2.8,9.4-1.5,14.6-4.3c6.4-3.4,7.4-9,13.7-12.6c5.4-3,10-1.5,15.1-4.9c4.5-3,4.8-7.3,9.3-10.3c5.2-3.5,10.2-1.1,15.4-4.6
			c4.1-2.7,4.4-6.6,8.6-9.3c3.8-2.5,6.5-3.4,11-3.9l1,11.8c26.1-21.3,57.7-41.4,90.4-42.3c13.5-0.4,27.2,4.2,32.2,16.6v65.9
			c-7-7.1-15.2-8.9-25.9-9c-54.1-0.5-100.3,54.1-99.4,49.9c3.6-16-2.1-46.9-29.3-46.9C592.5,625.4,552.7,660.8,537.9,672.4
			L537.9,672.4z"/>
	</g>
	<rect x="9.5" y="405.9" width="287.3" height="5.9"/>
	<rect x="373" y="405.9" width="817" height="5.9"/>
</g>
<path class="st2" d="M651,274.5l-0.3-1c-2.4-4.6-7.2-7.8-12.7-7.8c-7.9,0-14.3,6.4-14.3,14.2v18.5h0V280c0-7.9-6.4-14.2-14.3-14.2
	c-7.9,0-14.3,6.4-14.3,14.2v18.6V280c0-7.9-6.4-14.2-14.3-14.2c-5.5,0-10.3,3.2-12.7,7.8c0,0,2.7,7.9,10.2,14.8
	c0,0,12.3,12.6,29.3,12.3c17-0.2,22.5-4.4,26.8-7.4C645.7,285.4,651,274.5,651,274.5z"/>
<path d="M564.2,195.5l-0.1,62.1c0,1.2,0.1,2.3,0.2,3.4c0.2,3.2,0.9,6.3,1.9,9.3c1.4,4.5,3.7,8.8,6.7,12.7c2.9,3.9,6.3,7.3,10.1,10
	c3.9,2.8,8.1,5,12.7,6.4c4.6,1.5,8.8,2.2,13.4,2.2l0.5,0h0.4c4.7,0,9.3-0.7,13.8-2.2c4.6-1.4,8.9-3.6,12.7-6.4
	c3.9-2.7,7.3-6.1,10.2-10c3-3.9,5.2-8.2,6.7-12.7c1-3,1.7-6.2,1.9-9.4c0.1-1.1,0.1-2.2,0.2-3.4v-62H564.2z M594.5,297.4
	c-3.8-1.4-7.4-3.2-10.6-5.6c-3.8-2.6-7-5.9-9.8-9.6c-2-2.7-3.7-5.5-5-8.5c2.3-4.4,6.9-7.2,11.9-7.2c7.4,0,13.5,6,13.5,13.5V297.4z
	 M603.9,266c-4.1,1.6-7.3,5-8.7,9.2c-1.5-4.5-5.1-7.8-9.6-9.3H604 M623,298c-4.2,1.3-8.6,2-13,2l-0.4,0l-0.5,0
	c-4.4,0-8.5-0.7-13-2.1c-0.1,0-0.1,0-0.2-0.1v-18c0-7.4,6-13.5,13.5-13.5c7.4,0,13.5,6,13.5,13.5V298z M616,265.9h17.4
	c-4.5,1.5-8.1,4.8-9.6,9.3c-1.4-4.2-4.6-7.7-8.7-9.4 M645.4,282.1c-2.8,3.8-6.1,7-9.8,9.6c-3.4,2.4-7.1,4.4-11,5.7v-17.6
	c0-7.4,6.1-13.5,13.5-13.5c5.1,0,9.7,2.8,12,7.3l0.2,0.3C648.9,276.9,647.3,279.6,645.4,282.1z M653.8,257.5c0,1.2-0.1,2.3-0.2,3.3
	c-0.2,3.1-0.8,6.1-1.8,9c-0.3,0.8-0.5,1.6-0.9,2.4c-2.5-4.3-7-7-11.9-7.3h-0.3v-37.2l9.8-7.1l-15-12.1c0.6-0.8,0.9-1.8,0.9-2.9
	c0-2.8-2.3-5.1-5.1-5.1c-2.8,0-5.1,2.3-5.1,5.1c0,1.1,0.3,2,0.9,2.9l-15.8,12.1l-15.8-12.1c0.6-0.8,0.9-1.8,0.9-2.9
	c0-2.8-2.3-5.1-5.1-5.1c-2.8,0-5.1,2.3-5.1,5.1c0,1.1,0.3,2.1,0.9,2.9l-15,12.1l9.8,7.1V265c-4.9,0.3-9.2,2.8-11.8,6.9
	c-0.3-0.7-0.5-1.3-0.7-2c-1-2.9-1.6-5.9-1.8-9c-0.1-1.1-0.1-2.2-0.2-3.3l0.1-60.5h88V257.5z"/>
<rect x="599.4" y="227.9" class="st3" width="20.1" height="36.5"/>
<g>
	<path class="st3" d="M587.5,208.8l-1.1,0.9L573.6,220h32.5l-13.3-10.2l-1.2-0.9l0.8-1.2c0.4-0.6,0.6-1.3,0.6-2
		c0-1.9-1.6-3.5-3.5-3.5c-1.9,0-3.5,1.6-3.5,3.5c0,0.7,0.2,1.4,0.6,2L587.5,208.8z"/>
	<polygon class="st3" points="574,221.3 581.1,226.4 598.4,226.4 605.8,221.3 	"/>
</g>
<g>
	<path class="st3" d="M627.4,208.9l-1.2,0.9L612.9,220h32.5l-12.7-10.2l-1.1-0.9l0.8-1.2c0.4-0.6,0.6-1.3,0.6-2
		c0-1.9-1.6-3.5-3.5-3.5c-1.9,0-3.5,1.6-3.5,3.5c0,0.7,0.2,1.4,0.6,2L627.4,208.9z"/>
	<polygon class="st3" points="613.2,221.3 620.6,226.4 637.9,226.4 645,221.3 	"/>
</g>
<path d="M604,241.1l0-2.2c0-0.1,0-0.2,0-0.3c0-0.1,0-0.2,0.1-0.3c0-0.1,0.1-0.2,0.2-0.3c0.1-0.1,0.2-0.2,0.2-0.2
	c0.1-0.1,0.2-0.1,0.3-0.2c0.1,0,0.2-0.1,0.3-0.1c0.1,0,0.2,0,0.3,0.1c0.1,0,0.2,0.1,0.3,0.2c0.1,0.1,0.2,0.2,0.2,0.2
	c0.1,0.1,0.1,0.2,0.2,0.3c0,0.1,0,0.2,0.1,0.3c0,0.1,0,0.2,0,0.3v2.2H604"/>
<path d="M613.4,241.1l0-2.2c0-0.1,0-0.2,0-0.3c0-0.1,0-0.2,0.1-0.3c0-0.1,0.1-0.2,0.2-0.3c0.1-0.1,0.2-0.2,0.2-0.2
	c0.1-0.1,0.2-0.1,0.3-0.2c0.1,0,0.2-0.1,0.3-0.1c0.1,0,0.2,0,0.3,0.1c0.1,0,0.2,0.1,0.3,0.2c0.1,0.1,0.2,0.2,0.2,0.2
	c0.1,0.1,0.1,0.2,0.2,0.3c0,0.1,0.1,0.2,0.1,0.3c0,0.1,0,0.2,0,0.3v2.2H613.4"/>
<path d="M613.8,251.1c0-2.5-2-4.5-4.5-4.5c-2.5,0-4.5,2-4.5,4.5v14.8h9.1L613.8,251.1z"/>
<path class="st3" d="M606.3,264.4v-13.3c0-1.6,1.3-3,3-3c1.6,0,3,1.3,3,3l0.1,13.3H606.3z"/>
<g>
	<rect x="581.7" y="227.9" class="st3" width="16.3" height="31.4"/>
	<rect x="581.7" y="260.7" class="st3" width="16.3" height="3.7"/>
</g>
<g>
	<rect x="621.1" y="227.9" class="st3" width="16.3" height="31.4"/>
	<rect x="621.1" y="260.7" class="st3" width="16.3" height="3.7"/>
</g>
<path d="M587.5,241l0-2.7c0-0.2,0-0.5,0-0.7c0-0.2,0.1-0.4,0.1-0.6c0.1-0.2,0.2-0.4,0.3-0.6c0.1-0.2,0.3-0.4,0.5-0.5
	c0.2-0.1,0.4-0.2,0.6-0.3c0.2-0.1,0.4-0.1,0.7-0.1c0.2,0,0.4,0,0.7,0.1c0.2,0.1,0.4,0.2,0.6,0.3c0.2,0.1,0.3,0.3,0.5,0.5
	c0.1,0.2,0.2,0.4,0.3,0.6c0.1,0.2,0.1,0.4,0.1,0.7c0,0.2,0,0.4,0,0.6l0,2.7H587.5"/>
<path d="M627.6,241l0-2.7c0-0.2,0-0.5,0-0.7c0-0.2,0.1-0.4,0.1-0.6c0.1-0.2,0.2-0.4,0.3-0.6c0.1-0.2,0.3-0.4,0.5-0.5
	c0.2-0.1,0.4-0.2,0.6-0.3c0.2-0.1,0.4-0.1,0.7-0.1c0.2,0,0.5,0,0.7,0.1c0.2,0.1,0.4,0.2,0.6,0.3c0.2,0.1,0.3,0.3,0.5,0.5
	c0.1,0.2,0.2,0.4,0.3,0.6c0.1,0.2,0.1,0.4,0.1,0.7c0,0.2,0,0.4,0,0.6v2.7H627.6"/>
<polygon class="st3" points="600.9,226.4 609.5,220.7 617.9,226.4 "/>
</svg>
