<?xml version="1.0" encoding="utf-8"?>
<svg xmlns="http://www.w3.org/2000/svg" xmlns:xlink="http://www.w3.org/1999/xlink" viewBox="0 0 176.523 66.905">
  <defs>
    <clipPath id="a">
      <rect x="43.784" y="10.831" width="92.065" height="43.67" fill="none"/>
    </clipPath>
  </defs>
  <title>stadtthun</title>
  <g>
    <g clip-path="url(#a)">
      <path d="M57.3,54.5h0ZM44.865,34.342,62.708,52.176A12.424,12.424,0,0,1,44.865,40.984V34.342Zm0-11.623h8.35L69.721,39.2v1.78A12.428,12.428,0,0,1,63.7,51.641L44.865,32.806V22.719Zm24.854,0V37.684L54.761,22.719ZM43.783,40.983a13.511,13.511,0,1,0,27.022,0V21.638H43.783V40.983Zm8.37-7.414h0l0,0-.007,0ZM44.869,11.913h4.1v5.669h6.269V11.913h4.1v5.669h6.267V11.916h4.106v5.666H70.8V10.833H64.531V16.5H60.426v-5.67H54.159V16.5h-4.1v-5.67H43.786v6.751h1.083V11.913ZM56.275,32.076l-2.213.577-.077,2.287-1.829-1.37-1.829,1.366-.073-2.287-2.214-.581,1.743-1.481-.927-2.093,2.246.439,1.06-2.029v0l1.053,2.031,2.247-.436-.929,2.09,1.741,1.485Zm.3-4.453-3,.581-1.408-2.71h0L50.756,28.2l-2.995-.586L49,30.407,46.67,32.384l2.954.774.1,3.053,2.442-1.824L54.6,36.216l.1-3.051,2.954-.771-2.324-1.981,1.241-2.79Z" fill="#fff"/>
    </g>
    <path d="M84.608,23.8a3.269,3.269,0,0,0-1.116-.975,3.413,3.413,0,0,0-1.646-.369,3.518,3.518,0,0,0-1,.151,2.91,2.91,0,0,0-.927.462,2.377,2.377,0,0,0-.672.782,2.307,2.307,0,0,0-.255,1.113,2.041,2.041,0,0,0,.246,1.055,2.322,2.322,0,0,0,.652.707,3.818,3.818,0,0,0,.928.481q.519.189,1.088.377.7.228,1.41.493a5.06,5.06,0,0,1,1.277.693,3.356,3.356,0,0,1,.927,1.081,3.425,3.425,0,0,1,.359,1.659,3.554,3.554,0,0,1-1.39,2.94,4.144,4.144,0,0,1-1.4.7,5.649,5.649,0,0,1-1.581.228,6.225,6.225,0,0,1-1.211-.121,5.6,5.6,0,0,1-1.154-.363,4.691,4.691,0,0,1-1.022-.617,4.442,4.442,0,0,1-.832-.867l1.173-.87a3.6,3.6,0,0,0,1.224,1.2,3.472,3.472,0,0,0,1.851.483,3.576,3.576,0,0,0,1.044-.162,2.926,2.926,0,0,0,.958-.493,2.745,2.745,0,0,0,.7-.817,2.535,2.535,0,0,0,0-2.3,2.447,2.447,0,0,0-.731-.779,4.442,4.442,0,0,0-1.043-.522q-.588-.208-1.234-.418-.663-.208-1.309-.473a4.425,4.425,0,0,1-1.157-.69,3.208,3.208,0,0,1-.825-1.051,3.826,3.826,0,0,1,.074-3.2,3.509,3.509,0,0,1,1.013-1.155,4.25,4.25,0,0,1,1.381-.662,5.648,5.648,0,0,1,1.5-.208,5.164,5.164,0,0,1,2.327.482,4.006,4.006,0,0,1,1.457,1.145l-1.079.871Z" fill="#fff"/>
    <polygon points="93.256 35.037 91.894 35.037 91.894 22.851 87.409 22.851 87.409 21.641 97.74 21.641 97.74 22.851 93.256 22.851 93.256 35.037 93.256 35.037" fill="#fff"/>
    <path d="M100.655,30.269h5.9l-2.952-7.115-2.951,7.115Zm-1.968,4.768h-1.5l5.79-13.4h1.325l5.751,13.4h-1.513l-1.476-3.519h-6.926l-1.456,3.519Z" fill="#fff"/>
    <path d="M113.938,33.826h2.706a6.766,6.766,0,0,0,2.639-.473,5.5,5.5,0,0,0,1.864-1.239,5.061,5.061,0,0,0,1.107-1.75,5.741,5.741,0,0,0,0-4.05,5.061,5.061,0,0,0-1.107-1.75,5.5,5.5,0,0,0-1.864-1.239,6.784,6.784,0,0,0-2.639-.474h-2.706V33.826Zm-1.363-12.185h4.447a7.955,7.955,0,0,1,2.507.416,6.913,6.913,0,0,1,2.271,1.258,6.4,6.4,0,0,1,1.636,2.1,6.491,6.491,0,0,1,.625,2.924,6.282,6.282,0,0,1-2.261,5.024,6.913,6.913,0,0,1-2.271,1.258,7.927,7.927,0,0,1-2.507.416h-4.447v-13.4Z" fill="#fff"/>
    <polygon points="131.364 35.037 130.002 35.037 130.002 22.851 125.518 22.851 125.518 21.641 135.848 21.641 135.848 22.851 131.364 22.851 131.364 35.037 131.364 35.037" fill="#fff"/>
    <polygon points="84.589 43.413 84.589 54.047 81.354 54.047 81.354 43.413 77.569 43.413 77.569 40.65 88.374 40.65 88.374 43.413 84.589 43.413 84.589 43.413" fill="#fff"/>
    <polygon points="99.822 54.047 99.822 48.446 94.599 48.446 94.599 54.047 91.364 54.047 91.364 40.65 94.599 40.65 94.599 45.721 99.822 45.721 99.822 40.65 103.057 40.65 103.057 54.047 99.822 54.047 99.822 54.047" fill="#fff"/>
    <path d="M118.279,51.2a4.8,4.8,0,0,1-1.163,1.7,5.38,5.38,0,0,1-1.826,1.107,7.329,7.329,0,0,1-4.759,0,5.178,5.178,0,0,1-1.8-1.107,4.821,4.821,0,0,1-1.135-1.7,5.883,5.883,0,0,1-.4-2.2V40.65h3.235v8.08a3.787,3.787,0,0,0,.141,1.04,2.653,2.653,0,0,0,.434.88,2.025,2.025,0,0,0,.773.615,3.075,3.075,0,0,0,2.319,0,2.111,2.111,0,0,0,.782-.615,2.44,2.44,0,0,0,.433-.88,3.946,3.946,0,0,0,.133-1.04V40.65h3.235V49a5.749,5.749,0,0,1-.407,2.2Z" fill="#fff"/>
    <polygon points="131.326 54.047 125.933 45.286 125.877 45.286 125.952 54.047 122.811 54.047 122.811 40.65 126.501 40.65 131.875 49.392 131.932 49.392 131.856 40.65 134.997 40.65 134.997 54.047 131.326 54.047 131.326 54.047" fill="#fff"/>
  </g>
</svg>
