<?xml version="1.0" encoding="utf-8"?>
<!-- Generator: Adobe Illustrator 21.1.0, SVG Export Plug-In . SVG Version: 6.00 Build 0)  -->
<svg version="1.1" id="Ebene_1" xmlns="http://www.w3.org/2000/svg" xmlns:xlink="http://www.w3.org/1999/xlink" x="0px" y="0px"
	 width="280px" height="85px" viewBox="0 0 310 95" style="enable-background:new 0 0 310 95;" xml:space="preserve">
<style type="text/css">
	.st0{fill:#5FA82C;}
</style>
<g>
	<g>
		<polygon class="st0" points="36.9,52.6 35.1,52.6 35.1,65 42.1,65 42.1,63.5 36.9,63.5 		"/>
		<path class="st0" d="M47.8,55.7c-2.6,0-4.3,1.9-4.3,4.6c0,3,1.5,4.9,4.7,4.9c1.5,0,2.2-0.4,2.9-0.6V63c-0.4,0.3-1.7,0.9-2.8,0.9
			c-1.6,0-3-1.2-3-3h6.5C51.8,57.9,50.9,55.7,47.8,55.7z M45.4,59.6c0.1-1.2,0.8-2.5,2.4-2.5c1.4,0,2.3,1.1,2.3,2.5H45.4z"/>
		<path class="st0" d="M59.1,55.7c-1.6,0-2.5,0.6-3,1.5h0v-5.5h-1.7V65H56v-1.3h0c0.4,0.7,1.5,1.5,3.1,1.5c2.7,0,3.9-2.4,3.9-4.9
			C63,57.9,61.7,55.7,59.1,55.7z M58.7,63.9c-1.9,0-2.7-1.9-2.7-3.4c0-1.7,0.9-3.4,2.7-3.4c1.8,0,2.5,1.7,2.5,3.4
			C61.3,61.9,60.5,63.9,58.7,63.9z"/>
		<path class="st0" d="M69.2,55.7c-2.6,0-4.3,1.9-4.3,4.6c0,3,1.5,4.9,4.7,4.9c1.5,0,2.2-0.4,2.9-0.6V63c-0.4,0.3-1.7,0.9-2.8,0.9
			c-1.6,0-3-1.2-3-3h6.5C73.2,57.9,72.2,55.7,69.2,55.7z M66.7,59.6c0.1-1.2,0.8-2.5,2.4-2.5c1.4,0,2.3,1.1,2.3,2.5H66.7z"/>
		<path class="st0" d="M80.3,55.7c-1.3,0-2.5,0.6-3,1.7h0v-1.4h-1.6V65h1.7v-4.2c0-2.2,0.9-3.7,2.8-3.7c1.5,0.1,1.9,1.1,1.9,3.2V65
			h1.7v-5.4C83.7,57.2,82.7,55.7,80.3,55.7z"/>
		<path class="st0" d="M98.4,60.1c0,2.2-0.9,3.7-2.8,3.7c-1.5-0.1-1.9-1.1-1.9-3.2v-4.7h-1.7v5.4c0,2.4,1,3.9,3.4,3.9
			c1.3,0,2.5-0.6,3-1.7h0V65h1.6v-9.1h-1.7V60.1z"/>
		<path class="st0" d="M107.9,55.7c-1.3,0-2.5,0.6-3,1.7h0v-1.4h-1.6V65h1.7v-4.2c0-2.2,0.9-3.7,2.8-3.7c1.5,0.1,1.9,1.1,1.9,3.2V65
			h1.7v-5.4C111.3,57.2,110.2,55.7,107.9,55.7z"/>
		<path class="st0" d="M120.8,57.2L120.8,57.2c-0.5-0.8-1.5-1.5-3-1.5c-2.6,0-3.9,2.2-3.9,4.6c0,2.5,1.2,4.9,3.9,4.9
			c1.6,0,2.7-0.8,3.1-1.5h0V65h1.6V51.7h-1.7V57.2z M118.1,63.9c-1.8,0-2.6-2-2.5-3.4c0-1.7,0.7-3.4,2.5-3.4c1.8,0,2.7,1.7,2.7,3.4
			C120.8,62,120,63.9,118.1,63.9z"/>
		<path class="st0" d="M134.9,52.6L129.6,65h1.9l1.3-3.1h6.1l1.3,3.1h1.9l-5.3-12.4H134.9z M133.3,60.4l2.5-6.2l2.5,6.2H133.3z"/>
		<path class="st0" d="M145.5,57.3L145.5,57.3l0-1.4h-1.6V65h1.7v-4.1c0-2.3,1-3.7,2.5-3.7c0.3,0,0.6,0,0.9,0.2v-1.5
			c-0.4-0.1-0.6-0.1-1.1-0.1C146.9,55.7,146,56.4,145.5,57.3z"/>
		<path class="st0" d="M155.8,55.7c-1.6,0-2.5,0.6-3,1.5h0v-5.5h-1.7V65h1.6v-1.3h0c0.5,0.7,1.5,1.5,3.1,1.5c2.7,0,3.9-2.4,3.9-4.9
			C159.8,57.9,158.5,55.7,155.8,55.7z M155.5,63.9c-1.9,0-2.7-1.9-2.7-3.4c0-1.7,0.9-3.4,2.7-3.4c1.8,0,2.5,1.7,2.5,3.4
			C158,61.9,157.3,63.9,155.5,63.9z"/>
		<path class="st0" d="M165.9,55.7c-2.6,0-4.3,1.9-4.3,4.6c0,3,1.5,4.9,4.7,4.9c1.5,0,2.2-0.4,2.9-0.6V63c-0.4,0.3-1.7,0.9-2.8,0.9
			c-1.6,0-3-1.2-3-3h6.5C169.9,57.9,169,55.7,165.9,55.7z M163.5,59.6c0.1-1.2,0.8-2.5,2.4-2.5c1.4,0,2.3,1.1,2.3,2.5H163.5z"/>
		<rect x="172.7" y="55.9" class="st0" width="1.7" height="9.1"/>
		<rect x="172.6" y="52" class="st0" width="1.9" height="1.9"/>
		<path class="st0" d="M180.1,62.3v-5h2.4v-1.4h-2.4v-2.6l-1.7,0.5v2.1h-2.1v1.4h2.1v5.3c0,1.8,1.1,2.6,2.8,2.6c0.5,0,1-0.1,1.4-0.2
			v-1.4c-0.3,0.2-0.6,0.3-1.1,0.3C180.7,63.9,180.1,63.3,180.1,62.3z"/>
		<path class="st0" d="M188.5,55.7c-2.6,0-4.3,1.9-4.3,4.6c0,3,1.5,4.9,4.7,4.9c1.5,0,2.2-0.4,2.9-0.6V63c-0.4,0.3-1.7,0.9-2.8,0.9
			c-1.6,0-3-1.2-3-3h6.5C192.5,57.9,191.6,55.7,188.5,55.7z M186.1,59.6c0.1-1.2,0.8-2.5,2.4-2.5c1.4,0,2.3,1.1,2.3,2.5H186.1z"/>
		<path class="st0" d="M199.7,55.7c-1.3,0-2.5,0.6-3,1.7h0v-1.4h-1.6V65h1.7v-4.2c0-2.2,0.9-3.7,2.8-3.7c1.5,0.1,1.9,1.1,1.9,3.2V65
			h1.7v-5.4C203.1,57.2,202,55.7,199.7,55.7z"/>
	</g>
	<g>
		<path class="st0" d="M199.2,36.1c0-0.8,0.8-1.1,1.6-1.1c0.4,0,1.4,0.2,1.8,0.5l0.1-1.5c-0.7-0.2-1.3-0.4-2.1-0.4
			c-1.8,0-3.2,0.9-3.2,2.8c0,2.5,3.9,2.4,3.9,4.1c0,1-0.9,1.3-1.7,1.3c-0.5,0-1.4-0.2-2.1-0.6l-0.1,1.5c0.8,0.4,1.6,0.5,2.5,0.5
			c1.6,0,3.2-0.9,3.2-2.8C203.1,37.4,199.2,38,199.2,36.1z"/>
		<path class="st0" d="M175.2,35.3L175.2,35.3l0-1.4h-1.6V43h1.7v-4.1c0-2.3,1-3.7,2.5-3.7c0.3,0,0.6,0,0.9,0.2v-1.5
			c-0.4-0.1-0.6-0.1-1.1-0.1C176.6,33.7,175.7,34.3,175.2,35.3z"/>
		<path class="st0" d="M167.1,33.7c-2.6,0-4.3,1.9-4.3,4.6c0,3,1.5,4.9,4.7,4.9c1.5,0,2.2-0.4,2.9-0.6v-1.7
			c-0.4,0.3-1.7,0.9-2.8,0.9c-1.6,0-3-1.2-3-3h6.5C171.1,35.9,170.1,33.7,167.1,33.7z M164.6,37.5c0.1-1.2,0.8-2.5,2.4-2.5
			c1.4,0,2.3,1.1,2.3,2.5H164.6z"/>
		<path class="st0" d="M152.7,38.8c0-2.3,1-3.7,2.5-3.7c0.3,0,0.6,0,0.9,0.2v-1.5c-0.4-0.1-0.6-0.1-1.1-0.1c-1,0-1.9,0.7-2.4,1.6h0
			v-1.4H151V43h1.7V38.8z"/>
		<path class="st0" d="M143.1,43c1.2,0,2.3-0.5,3-1.4h0v0.9c0,1.9-1,3.1-2.8,3.1c-1.2,0-2-0.2-3.3-0.8l-0.2,1.6
			c1.5,0.5,2.3,0.6,3.3,0.6c3.3,0,4.7-1.6,4.7-4.3v-8.7h-1.5v1.4h0c-0.5-1-1.4-1.6-3-1.6c-2.7,0-4.1,2.5-4.1,4.8
			C139.2,40.8,140.5,43,143.1,43z M143.6,35c1.8,0,2.7,1.6,2.7,3.5c0,1.7-1.1,3.1-2.7,3.1c-1.6,0-2.5-1.5-2.5-3.2
			C141,36.8,141.9,35,143.6,35z"/>
		<rect x="87.2" y="30.7" class="st0" width="1.7" height="1.8"/>
		<rect x="84.2" y="30.7" class="st0" width="1.7" height="1.8"/>
		<path class="st0" d="M23.3,43H25v-7.7h2.4v-1.4H25v-1c0-1.2,0.2-2.2,1.6-2.2c0.3,0,0.6,0,0.8,0.1l0.1-1.4
			c-0.3-0.1-0.7-0.1-1.1-0.1c-2.5,0-3,1.4-3,3.7v0.8h-2.1v1.4h2.1V43z"/>
		<path class="st0" d="M2.9,41.6c-0.9,0-2-0.4-2.6-0.6l-0.2,1.7c0.8,0.3,1.7,0.5,2.5,0.5c2.5,0,4.5-1.1,4.5-3.7
			c0-4.1-5.4-3.6-5.4-5.9c0-1.3,1.2-1.7,2.2-1.7c0.9,0,1.4,0.2,2.3,0.5l0.3-1.6c-0.9-0.3-1.8-0.4-2.7-0.4c-2.2,0-4,1.2-4,3.4
			c0,3.9,5.3,3.1,5.3,5.9C5.3,41,3.9,41.6,2.9,41.6z"/>
		<path class="st0" d="M10.5,40.5c0,1.8,1.1,2.6,2.8,2.6c0.5,0,1.1-0.1,1.4-0.3v-1.4c-0.3,0.2-0.6,0.3-1.1,0.3
			c-0.8,0-1.4-0.6-1.4-1.6v-5h2.4v-1.4h-2.4v-2.6l-1.7,0.5v2.1h-2v1.4h2V40.5z"/>
		<rect x="17.2" y="33.9" class="st0" width="1.7" height="9.1"/>
		<rect x="17.1" y="29.9" class="st0" width="1.9" height="1.9"/>
		<path class="st0" d="M32.9,43.2c0.5,0,1.1-0.1,1.4-0.3v-1.4c-0.3,0.2-0.6,0.3-1.1,0.3c-0.8,0-1.4-0.6-1.4-1.6v-5h2.4v-1.4h-2.4
			v-2.6l-1.7,0.5v2.1h-2v1.4h2v5.3C30.1,42.4,31.2,43.2,32.9,43.2z"/>
		<path class="st0" d="M43,41.5L43,41.5l0,1.4h1.6v-9.1H43v4.2c0,2.2-0.9,3.7-2.8,3.7c-1.5-0.1-1.9-1.1-1.9-3.2v-4.7h-1.7v5.4
			c0,2.4,1.1,3.9,3.4,3.9C41.3,43.2,42.5,42.5,43,41.5z"/>
		<path class="st0" d="M52.4,33.7c-1.3,0-2.5,0.6-3,1.7h0v-1.4h-1.6V43h1.7v-4.2c0-2.2,0.9-3.7,2.8-3.7c1.5,0.1,1.9,1.1,1.9,3.2V43
			h1.7v-5.4C55.8,35.1,54.7,33.7,52.4,33.7z"/>
		<path class="st0" d="M65.4,35.2L65.4,35.2c-0.5-1-1.4-1.6-3-1.6c-2.7,0-4.1,2.5-4.1,4.8c0,2.3,1.3,4.5,3.9,4.5
			c1.2,0,2.3-0.5,3-1.4h0v0.9c0,1.9-1.1,3.1-2.8,3.1c-1.2,0-2-0.2-3.3-0.8L59,46.3c1.5,0.5,2.3,0.6,3.3,0.6c3.3,0,4.7-1.6,4.7-4.3
			v-8.7h-1.6V35.2z M62.6,41.6c-1.6,0-2.5-1.5-2.5-3.2c0-1.5,0.8-3.4,2.5-3.4c1.8,0,2.7,1.6,2.7,3.5C65.3,40.2,64.2,41.6,62.6,41.6z
			"/>
		<path class="st0" d="M80.5,33.9h-2.4v-1c0-1.2,0.2-2.2,1.6-2.2c0.3,0,0.6,0,0.8,0.1l0.1-1.4c-0.3-0.1-0.7-0.1-1.1-0.1
			c-2.5,0-3,1.4-3,3.7v0.8h-2.1v1.4h2.1V43h1.7v-7.7h2.4V33.9z"/>
		<path class="st0" d="M88.9,38.1c0,2.2-0.9,3.7-2.8,3.7c-1.5-0.1-1.9-1.1-1.9-3.2v-4.7h-1.7v5.4c0,2.4,1.1,3.9,3.4,3.9
			c1.3,0,2.5-0.6,3-1.7h0V43h1.6v-9.1h-1.7V38.1z"/>
		<path class="st0" d="M95.3,38.8c0-2.3,1-3.7,2.5-3.7c0.3,0,0.6,0,0.9,0.2v-1.5c-0.4-0.1-0.6-0.1-1.1-0.1c-1,0-1.9,0.7-2.4,1.6h0
			v-1.4h-1.6V43h1.7V38.8z"/>
		<rect x="106.3" y="33.9" class="st0" width="1.7" height="9.1"/>
		<rect x="106.2" y="29.9" class="st0" width="1.9" height="1.9"/>
		<path class="st0" d="M117.7,43h1.7v-5.4c0-2.4-1-3.9-3.4-3.9c-1.3,0-2.5,0.6-3,1.7h0v-1.4h-1.6V43h1.7v-4.2c0-2.2,0.9-3.7,2.8-3.7
			c1.5,0.1,1.9,1.1,1.9,3.2V43z"/>
		<path class="st0" d="M127.4,41.5c-0.3,0.2-0.6,0.3-1.1,0.3c-0.8,0-1.4-0.6-1.4-1.6v-5h2.4v-1.4h-2.4v-2.6l-1.7,0.5v2.1h-2v1.4h2
			v5.3c0,1.8,1.1,2.6,2.8,2.6c0.5,0,1.1-0.1,1.4-0.3V41.5z"/>
		<path class="st0" d="M133.3,33.7c-2.6,0-4.3,1.9-4.3,4.6c0,3,1.5,4.9,4.7,4.9c1.5,0,2.2-0.4,2.9-0.6v-1.7
			c-0.4,0.3-1.7,0.9-2.8,0.9c-1.6,0-3-1.2-3-3h6.5C137.3,35.9,136.4,33.7,133.3,33.7z M130.8,37.5c0.1-1.2,0.8-2.5,2.4-2.5
			c1.5,0,2.3,1.1,2.3,2.5H130.8z"/>
		<rect x="158.4" y="33.9" class="st0" width="1.7" height="9.1"/>
		<rect x="158.3" y="29.9" class="st0" width="1.9" height="1.9"/>
		<path class="st0" d="M183.2,40.2v-5h2.4v-1.4h-2.4v-2.6l-1.7,0.5v2.1h-2.1v1.4h2.1v5.3c0,1.8,1.1,2.6,2.8,2.6
			c0.5,0,1.1-0.1,1.4-0.3v-1.4c-0.3,0.2-0.6,0.3-1.1,0.3C183.9,41.8,183.2,41.2,183.2,40.2z"/>
		<path class="st0" d="M191.7,33.7c-2.6,0-4.3,1.9-4.3,4.6c0,3,1.5,4.9,4.7,4.9c1.5,0,2.2-0.4,2.9-0.6v-1.7
			c-0.4,0.3-1.7,0.9-2.8,0.9c-1.6,0-3-1.2-3-3h6.5C195.7,35.9,194.7,33.7,191.7,33.7z M189.2,37.5c0.1-1.2,0.8-2.5,2.4-2.5
			c1.4,0,2.3,1.1,2.3,2.5H189.2z"/>
	</g>
	<g>
		<path class="st0" d="M286.8,51.7c0,1.6,1.6,2.3,2.7,2.3c2.7,0,4.3-1.5,4.3-4c0,0,0-0.6,0-1c-0.3,0-1.5,0-1.5,0
			C290.7,48.9,286.8,49.1,286.8,51.7z"/>
		<path class="st0" d="M270.4,42c-3,0-3.8,2.5-4,3.8c1,0,6.8,0,7.8,0C274,43.9,272.8,42,270.4,42z"/>
		<path class="st0" d="M262.5,0C236.3,0,215,21.3,215,47.5c0,26.2,21.3,47.5,47.5,47.5c26.2,0,47.5-21.3,47.5-47.5
			C310,21.3,288.7,0,262.5,0z M230.9,57.6l-1.1,0V54h0.5c0.5,0,2.7-0.1,2.7-2c0-1.1-1.3-1.7-2.9-2.5c-2.1-1-4.6-2.3-4.6-5.3
			c0-3.6,2.5-5.8,6.6-5.8c1.6,0,2.9,0.3,4.1,0.7l0.4,0.1l-0.4,4l-0.7-0.4c-0.6-0.4-2.4-0.8-3.1-0.8c-1.2,0-2.6,0.4-2.6,1.6
			c0,1.2,1.1,1.7,2.8,2.5c2.1,0.9,4.7,2.1,4.7,5.5C237.4,55.8,234.1,57.6,230.9,57.6z M247.1,49.1h-4.2V38.9h3.7h0.5V49.1z
			 M247.3,36h-4.6v-4.6h4.1h0.5V36z M256.9,57.2h-4.2V30.7h3.7h0.5V57.2z M278.6,49.2c0,0-11.2,0-12.3,0c0.3,3,2.7,4.8,5.1,4.8h0.5
			v3.1l-0.1,0.5h-0.5c-6,0-9.5-3.6-9.5-9.9c0-5.5,3.5-9.3,8.6-9.3c5.4,0,8.1,3.5,8.1,10.3V49.2z M294.2,57.2c0,0,0-1,0-1.5
			c-0.9,0.9-2.5,1.9-4.9,1.9c-4.4,0-6.9-2.1-6.9-5.9c0-4.3,4.3-6.2,8.5-6.2c0,0,2,0,2.8,0.1c-0.1-2.5-1.2-3.5-3.7-3.5h-0.5V39l0-0.5
			l0.5,0l0.5,0c5,0,7.5,2.5,7.5,7.7v7.2l0.2,3.9H294.2z"/>
	</g>
</g>
</svg>
